# xmcd CD database file
#
# Track frame offsets:
#	150
#	10425
#	29975
#	43900
#	56875
#	73250
#	88150
#	114425
#	132575
#	145000
#	161525
#	178825
#	195200
#	206725
#	224050
#
# Disc length: 3170 seconds
#
# Revision: 2
# Processed by: cddbd v1.5.2PL0 Copyright (c) Steve Scherf et al.
# Submitted via: CDex 1.70beta2
#
DISCID=f40c600f
DTITLE=Louis Armstrong - The Wonderful Louis Armstrong #2
DYEAR=1995
DGENRE=Jazz
TTITLE0=What a Wonderful World
TTITLE1=I Can't Give You Anything But Love
TTITLE2=The Must Be A Way
TTITLE3=Blueberry Hill
TTITLE4=When The Saints Go Marching In
TTITLE5=If I Could Be With You
TTITLE6=On The Sunny Side Of The Street
TTITLE7=When You're Smiling
TTITLE8=Shadrack
TTITLE9=Everybody Love My Baby
TTITLE10=Lazy River
TTITLE11=Go Down Moses
TTITLE12=Hellza Poppin
TTITLE13=Basin Street Blues
TTITLE14=Some Of These Days
EXTD=YEAR: 1995
EXTT0=
EXTT1=
EXTT2=
EXTT3=
EXTT4=
EXTT5=
EXTT6=
EXTT7=
EXTT8=
EXTT9=
EXTT10=
EXTT11=
EXTT12=
EXTT13=
EXTT14=
PLAYORDER=
